<svg xmlns="http://www.w3.org/2000/svg" width="441" height="408" viewBox="0 0 441 408">
<rect width="100%" height="100%" fill="white"/>
<text x="220.5" y="28" text-anchor="middle" font-size="16" font-family="sans-serif">Dual-axis K-RoPE: 영희를 철수가 좋아한다</text>
<text x="176.0" y="72" text-anchor="middle" font-size="11" font-family="sans-serif" transform="rotate(-22 176.0 72)">영희를</text>
<text x="258.0" y="72" text-anchor="middle" font-size="11" font-family="sans-serif" transform="rotate(-22 258.0 72)">철수가</text>
<text x="340.0" y="72" text-anchor="middle" font-size="11" font-family="sans-serif" transform="rotate(-22 340.0 72)">좋아한다</text>
<text x="125" y="138.0" text-anchor="end" font-size="12" font-family="sans-serif">영희를</text>
<text x="125" y="220.0" text-anchor="end" font-size="12" font-family="sans-serif">철수가</text>
<text x="125" y="302.0" text-anchor="end" font-size="12" font-family="sans-serif">좋아한다</text>
<rect x="135" y="92" width="82" height="82" fill="#25928a" stroke="white"/>
<text x="176.0" y="138.0" text-anchor="middle" font-size="13" fill="white" font-family="monospace">0.51</text>
<rect x="217" y="92" width="82" height="82" fill="#392a64" stroke="white"/>
<text x="258.0" y="138.0" text-anchor="middle" font-size="13" fill="white" font-family="monospace">0.15</text>
<rect x="299" y="92" width="82" height="82" fill="#2b647a" stroke="white"/>
<text x="340.0" y="138.0" text-anchor="middle" font-size="13" fill="white" font-family="monospace">0.35</text>
<rect x="135" y="174" width="82" height="82" fill="#353b6a" stroke="white"/>
<text x="176.0" y="220.0" text-anchor="middle" font-size="13" fill="white" font-family="monospace">0.20</text>
<rect x="217" y="174" width="82" height="82" fill="#7fb55f" stroke="white"/>
<text x="258.0" y="220.0" text-anchor="middle" font-size="13" fill="white" font-family="monospace">0.71</text>
<rect x="299" y="174" width="82" height="82" fill="#3e185d" stroke="white"/>
<text x="340.0" y="220.0" text-anchor="middle" font-size="13" fill="white" font-family="monospace">0.08</text>
<rect x="135" y="256" width="82" height="82" fill="#314e72" stroke="white"/>
<text x="176.0" y="302.0" text-anchor="middle" font-size="13" fill="white" font-family="monospace">0.27</text>
<rect x="217" y="256" width="82" height="82" fill="#400e59" stroke="white"/>
<text x="258.0" y="302.0" text-anchor="middle" font-size="13" fill="white" font-family="monospace">0.05</text>
<rect x="299" y="256" width="82" height="82" fill="#72b065" stroke="white"/>
<text x="340.0" y="302.0" text-anchor="middle" font-size="13" fill="white" font-family="monospace">0.69</text>
</svg>