<svg xmlns="http://www.w3.org/2000/svg" width="441" height="408" viewBox="0 0 441 408">
<rect width="100%" height="100%" fill="white"/>
<text x="220.5" y="28" text-anchor="middle" font-size="16" font-family="sans-serif">RoPE: 철수가 영희를 좋아한다</text>
<text x="176.0" y="72" text-anchor="middle" font-size="11" font-family="sans-serif" transform="rotate(-22 176.0 72)">철수가</text>
<text x="258.0" y="72" text-anchor="middle" font-size="11" font-family="sans-serif" transform="rotate(-22 258.0 72)">영희를</text>
<text x="340.0" y="72" text-anchor="middle" font-size="11" font-family="sans-serif" transform="rotate(-22 340.0 72)">좋아한다</text>
<text x="125" y="138.0" text-anchor="end" font-size="12" font-family="sans-serif">철수가</text>
<text x="125" y="220.0" text-anchor="end" font-size="12" font-family="sans-serif">영희를</text>
<text x="125" y="302.0" text-anchor="end" font-size="12" font-family="sans-serif">좋아한다</text>
<rect x="135" y="92" width="82" height="82" fill="#d5d737" stroke="white"/>
<text x="176.0" y="138.0" text-anchor="middle" font-size="13" fill="white" font-family="monospace">0.91</text>
<rect x="217" y="92" width="82" height="82" fill="#40105a" stroke="white"/>
<text x="258.0" y="138.0" text-anchor="middle" font-size="13" fill="white" font-family="monospace">0.06</text>
<rect x="299" y="92" width="82" height="82" fill="#410a57" stroke="white"/>
<text x="340.0" y="138.0" text-anchor="middle" font-size="13" fill="white" font-family="monospace">0.03</text>
<rect x="135" y="174" width="82" height="82" fill="#420856" stroke="white"/>
<text x="176.0" y="220.0" text-anchor="middle" font-size="13" fill="white" font-family="monospace">0.03</text>
<rect x="217" y="174" width="82" height="82" fill="#257f85" stroke="white"/>
<text x="258.0" y="220.0" text-anchor="middle" font-size="13" fill="white" font-family="monospace">0.44</text>
<rect x="299" y="174" width="82" height="82" fill="#309784" stroke="white"/>
<text x="340.0" y="220.0" text-anchor="middle" font-size="13" fill="white" font-family="monospace">0.54</text>
<rect x="135" y="256" width="82" height="82" fill="#430455" stroke="white"/>
<text x="176.0" y="302.0" text-anchor="middle" font-size="13" fill="white" font-family="monospace">0.01</text>
<rect x="217" y="256" width="82" height="82" fill="#277681" stroke="white"/>
<text x="258.0" y="302.0" text-anchor="middle" font-size="13" fill="white" font-family="monospace">0.41</text>
<rect x="299" y="256" width="82" height="82" fill="#439e7b" stroke="white"/>
<text x="340.0" y="302.0" text-anchor="middle" font-size="13" fill="white" font-family="monospace">0.58</text>
</svg>