<svg xmlns="http://www.w3.org/2000/svg" width="441" height="408" viewBox="0 0 441 408">
<rect width="100%" height="100%" fill="white"/>
<text x="220.5" y="28" text-anchor="middle" font-size="16" font-family="sans-serif">Additive K-RoPE: 영희를 철수가 좋아한다</text>
<text x="176.0" y="72" text-anchor="middle" font-size="11" font-family="sans-serif" transform="rotate(-22 176.0 72)">영희를</text>
<text x="258.0" y="72" text-anchor="middle" font-size="11" font-family="sans-serif" transform="rotate(-22 258.0 72)">철수가</text>
<text x="340.0" y="72" text-anchor="middle" font-size="11" font-family="sans-serif" transform="rotate(-22 340.0 72)">좋아한다</text>
<text x="125" y="138.0" text-anchor="end" font-size="12" font-family="sans-serif">영희를</text>
<text x="125" y="220.0" text-anchor="end" font-size="12" font-family="sans-serif">철수가</text>
<text x="125" y="302.0" text-anchor="end" font-size="12" font-family="sans-serif">좋아한다</text>
<rect x="135" y="92" width="82" height="82" fill="#72b066" stroke="white"/>
<text x="176.0" y="138.0" text-anchor="middle" font-size="13" fill="white" font-family="monospace">0.68</text>
<rect x="217" y="92" width="82" height="82" fill="#32476f" stroke="white"/>
<text x="258.0" y="138.0" text-anchor="middle" font-size="13" fill="white" font-family="monospace">0.25</text>
<rect x="299" y="92" width="82" height="82" fill="#3f155b" stroke="white"/>
<text x="340.0" y="138.0" text-anchor="middle" font-size="13" fill="white" font-family="monospace">0.07</text>
<rect x="135" y="174" width="82" height="82" fill="#314c71" stroke="white"/>
<text x="176.0" y="220.0" text-anchor="middle" font-size="13" fill="white" font-family="monospace">0.26</text>
<rect x="217" y="174" width="82" height="82" fill="#83b75d" stroke="white"/>
<text x="258.0" y="220.0" text-anchor="middle" font-size="13" fill="white" font-family="monospace">0.72</text>
<rect x="299" y="174" width="82" height="82" fill="#420555" stroke="white"/>
<text x="340.0" y="220.0" text-anchor="middle" font-size="13" fill="white" font-family="monospace">0.01</text>
<rect x="135" y="256" width="82" height="82" fill="#40105a" stroke="white"/>
<text x="176.0" y="302.0" text-anchor="middle" font-size="13" fill="white" font-family="monospace">0.06</text>
<rect x="217" y="256" width="82" height="82" fill="#430455" stroke="white"/>
<text x="258.0" y="302.0" text-anchor="middle" font-size="13" fill="white" font-family="monospace">0.01</text>
<rect x="299" y="256" width="82" height="82" fill="#dfdb32" stroke="white"/>
<text x="340.0" y="302.0" text-anchor="middle" font-size="13" fill="white" font-family="monospace">0.93</text>
</svg>