<svg xmlns="http://www.w3.org/2000/svg" width="406" height="374" viewBox="0 0 406 374">
<rect width="100%" height="100%" fill="white"/>
<text x="203.0" y="28" text-anchor="middle" font-size="16" font-family="sans-serif">RoPE: 철수가 영희를 좋아한다</text>
<text x="161.0" y="60" text-anchor="middle" font-size="13" font-family="sans-serif">철수가</text>
<text x="243.0" y="60" text-anchor="middle" font-size="13" font-family="sans-serif">영희를</text>
<text x="325.0" y="60" text-anchor="middle" font-size="13" font-family="sans-serif">좋아한다</text>
<text x="110" y="124.0" text-anchor="end" font-size="13" font-family="sans-serif">철수가</text>
<text x="110" y="206.0" text-anchor="end" font-size="13" font-family="sans-serif">영희를</text>
<text x="110" y="288.0" text-anchor="end" font-size="13" font-family="sans-serif">좋아한다</text>
<rect x="120" y="78" width="82" height="82" fill="#d5d737" stroke="white"/>
<text x="161.0" y="124.0" text-anchor="middle" font-size="15" fill="white" font-family="monospace">0.91</text>
<rect x="202" y="78" width="82" height="82" fill="#40105a" stroke="white"/>
<text x="243.0" y="124.0" text-anchor="middle" font-size="15" fill="white" font-family="monospace">0.06</text>
<rect x="284" y="78" width="82" height="82" fill="#410a57" stroke="white"/>
<text x="325.0" y="124.0" text-anchor="middle" font-size="15" fill="white" font-family="monospace">0.03</text>
<rect x="120" y="160" width="82" height="82" fill="#420856" stroke="white"/>
<text x="161.0" y="206.0" text-anchor="middle" font-size="15" fill="white" font-family="monospace">0.03</text>
<rect x="202" y="160" width="82" height="82" fill="#257f85" stroke="white"/>
<text x="243.0" y="206.0" text-anchor="middle" font-size="15" fill="white" font-family="monospace">0.44</text>
<rect x="284" y="160" width="82" height="82" fill="#309784" stroke="white"/>
<text x="325.0" y="206.0" text-anchor="middle" font-size="15" fill="white" font-family="monospace">0.54</text>
<rect x="120" y="242" width="82" height="82" fill="#430455" stroke="white"/>
<text x="161.0" y="288.0" text-anchor="middle" font-size="15" fill="white" font-family="monospace">0.01</text>
<rect x="202" y="242" width="82" height="82" fill="#277681" stroke="white"/>
<text x="243.0" y="288.0" text-anchor="middle" font-size="15" fill="white" font-family="monospace">0.41</text>
<rect x="284" y="242" width="82" height="82" fill="#439e7b" stroke="white"/>
<text x="325.0" y="288.0" text-anchor="middle" font-size="15" fill="white" font-family="monospace">0.58</text>
</svg>