<svg xmlns="http://www.w3.org/2000/svg" width="860" height="520" viewBox="0 0 860 520">
<defs>
  <marker id="arrow" viewBox="0 0 10 10" refX="9" refY="5" markerWidth="7" markerHeight="7" orient="auto-start-reverse">
    <path d="M 0 0 L 10 5 L 0 10 z" fill="#111827"/>
  </marker>
  <style>
    .title { font: 700 22px 'Noto Sans CJK KR', 'Malgun Gothic', sans-serif; fill:#111827; }
    .label { font: 14px 'Noto Sans CJK KR', 'Malgun Gothic', sans-serif; fill:#111827; }
    .small { font: 12px 'Noto Sans CJK KR', 'Malgun Gothic', sans-serif; fill:#374151; }
    .axis { stroke:#111827; stroke-width:1.5; marker-end:url(#arrow); }
    .grid { stroke:#e5e7eb; stroke-width:1; }
  </style>
</defs>
<rect width="100%" height="100%" fill="#ffffff"/>
<text x="30" y="40" class="title">RoPE 회전 주파수 비교: 위치 m에 따른 cos(mθ_t)</text>
<text x="90" y="76" class="label">cos(mθ_t)</text>
<line x1="90" y1="430.0" x2="780" y2="430.0" class="grid"/>
<text x="35" y="434.0" class="small">-1</text>
<line x1="90" y1="348.8" x2="780" y2="348.8" class="grid"/>
<text x="35" y="352.8" class="small">-0.5</text>
<line x1="90" y1="267.5" x2="780" y2="267.5" class="grid"/>
<text x="35" y="271.5" class="small">0</text>
<line x1="90" y1="186.2" x2="780" y2="186.2" class="grid"/>
<text x="35" y="190.2" class="small">0.5</text>
<line x1="90" y1="105.0" x2="780" y2="105.0" class="grid"/>
<text x="35" y="109.0" class="small">1</text>
<line x1="90.0" y1="105" x2="90.0" y2="430" class="grid"/>
<text x="83.0" y="453" class="small">0</text>
<line x1="176.2" y1="105" x2="176.2" y2="430" class="grid"/>
<text x="169.2" y="453" class="small">5</text>
<line x1="262.5" y1="105" x2="262.5" y2="430" class="grid"/>
<text x="255.5" y="453" class="small">10</text>
<line x1="348.8" y1="105" x2="348.8" y2="430" class="grid"/>
<text x="341.8" y="453" class="small">15</text>
<line x1="435.0" y1="105" x2="435.0" y2="430" class="grid"/>
<text x="428.0" y="453" class="small">20</text>
<line x1="521.2" y1="105" x2="521.2" y2="430" class="grid"/>
<text x="514.2" y="453" class="small">25</text>
<line x1="607.5" y1="105" x2="607.5" y2="430" class="grid"/>
<text x="600.5" y="453" class="small">30</text>
<line x1="693.8" y1="105" x2="693.8" y2="430" class="grid"/>
<text x="686.8" y="453" class="small">35</text>
<line x1="780.0" y1="105" x2="780.0" y2="430" class="grid"/>
<text x="773.0" y="453" class="small">40</text>
<line x1="90" y1="430" x2="805" y2="430" class="axis"/>
<line x1="90" y1="430" x2="90" y2="80" class="axis"/>
<text x="768" y="480" class="label">위치 m</text>
<polyline points="90.0,105.0 91.7,105.8 93.5,108.2 95.2,112.3 96.9,117.8 98.6,124.9 100.3,133.4 102.1,143.2 103.8,154.3 105.5,166.5 107.2,179.7 109.0,193.8 110.7,208.6 112.4,224.0 114.2,239.9 115.9,256.0 117.6,272.2 119.3,288.4 121.0,304.4 122.8,320.0 124.5,335.1 126.2,349.5 128.0,363.1 129.7,375.8 131.4,387.3 133.1,397.7 134.8,406.7 136.6,414.4 138.3,420.6 140.0,425.3 141.8,428.4 143.5,429.9 145.2,429.7 146.9,428.0 148.7,424.6 150.4,419.7 152.1,413.2 153.8,405.3 155.6,396.0 157.3,385.5 159.0,373.7 160.7,360.9 162.4,347.2 164.2,332.6 165.9,317.4 167.6,301.8 169.4,285.7 171.1,269.5 172.8,253.3 174.5,237.2 176.2,221.4 178.0,206.1 179.7,191.4 181.4,177.4 183.2,164.4 184.9,152.3 186.6,141.5 188.3,131.9 190.1,123.6 191.8,116.8 193.5,111.5 195.2,107.7 196.9,105.6 198.7,105.0 200.4,106.1 202.1,108.8 203.9,113.1 205.6,118.9 207.3,126.2 209.0,134.9 210.8,145.0 212.5,156.3 214.2,168.6 215.9,182.0 217.6,196.2 219.4,211.2 221.1,226.7 222.8,242.6 224.6,258.7 226.3,275.0 228.0,291.1 229.7,307.1 231.5,322.6 233.2,337.6 234.9,351.9 236.6,365.3 238.3,377.8 240.1,389.2 241.8,399.3 243.5,408.1 245.2,415.6 247.0,421.5 248.7,425.9 250.4,428.7 252.2,430.0 253.9,429.5 255.6,427.5 257.3,423.9 259.1,418.7 260.8,412.0 262.5,403.8 264.2,394.3 266.0,383.6 267.7,371.6 269.4,358.7 271.1,344.8 272.9,330.1 274.6,314.8 276.3,299.1 278.0,283.0 279.8,266.8 281.5,250.6 283.2,234.5 284.9,218.8 286.7,203.6 288.4,189.0 290.1,175.2 291.8,162.3 293.6,150.4 295.3,139.8 297.0,130.4 298.7,122.4 300.5,115.8 302.2,110.7 303.9,107.2 305.6,105.4 307.4,105.1 309.1,106.4 310.8,109.4 312.5,114.0 314.2,120.0 316.0,127.6 317.7,136.5 319.4,146.8 321.1,158.3 322.9,170.8 324.6,184.3 326.3,198.7 328.1,213.7 329.8,229.3 331.5,245.3 333.2,261.5 335.0,277.7 336.7,293.8 338.4,309.7 340.1,325.2 341.9,340.1 343.6,354.2 345.3,367.5 347.0,379.8 348.8,390.9 350.5,400.9 352.2,409.5 353.9,416.7 355.7,422.4 357.4,426.5 359.1,429.1 360.8,430.0 362.6,429.3 364.3,427.0 366.0,423.1 367.7,417.7 369.4,410.7 371.2,402.3 372.9,392.6 374.6,381.6 376.4,369.5 378.1,356.4 379.8,342.4 381.5,327.6 383.2,312.2 385.0,296.4 386.7,280.3 388.4,264.0 390.2,247.8 391.9,231.8 393.6,216.2 395.3,201.1 397.1,186.6 398.8,172.9 400.5,160.2 402.2,148.6 403.9,138.1 405.7,128.9 407.4,121.1 409.1,114.8 410.9,110.0 412.6,106.8 414.3,105.2 416.0,105.2 417.8,106.8 419.5,110.1 421.2,114.9 422.9,121.2 424.7,129.0 426.4,138.2 428.1,148.6 429.8,160.3 431.6,173.0 433.3,186.7 435.0,201.2 436.7,216.3 438.5,232.0 440.2,248.0 441.9,264.2 443.6,280.4 445.4,296.5 447.1,312.4 448.8,327.7 450.5,342.5 452.2,356.5 454.0,369.6 455.7,381.7 457.4,392.7 459.2,402.4 460.9,410.8 462.6,417.7 464.3,423.2 466.1,427.0 467.8,429.3 469.5,430.0 471.2,429.0 473.0,426.5 474.7,422.3 476.4,416.6 478.1,409.4 479.9,400.8 481.6,390.9 483.3,379.7 485.0,367.4 486.7,354.1 488.5,339.9 490.2,325.0 491.9,309.6 493.7,293.7 495.4,277.6 497.1,261.3 498.8,245.1 500.5,229.2 502.3,213.6 504.0,198.6 505.7,184.2 507.5,170.7 509.2,158.2 510.9,146.7 512.6,136.5 514.3,127.5 516.1,120.0 517.8,113.9 519.5,109.4 521.2,106.4 523.0,105.1 524.7,105.4 526.4,107.3 528.2,110.8 529.9,115.8 531.6,122.4 533.3,130.5 535.0,139.9 536.8,150.5 538.5,162.4 540.2,175.3 542.0,189.1 543.7,203.7 545.4,218.9 547.1,234.7 548.9,250.7 550.6,266.9 552.3,283.2 554.0,299.2 555.8,315.0 557.5,330.3 559.2,344.9 560.9,358.8 562.7,371.7 564.4,383.7 566.1,394.4 567.8,403.9 569.6,412.1 571.3,418.7 573.0,423.9 574.7,427.5 576.5,429.6 578.2,429.9 579.9,428.7 581.6,425.9 583.4,421.5 585.1,415.5 586.8,408.1 588.5,399.2 590.2,389.1 592.0,377.7 593.7,365.2 595.4,351.8 597.2,337.5 598.9,322.5 600.6,306.9 602.3,291.0 604.0,274.8 605.8,258.6 607.5,242.4 609.2,226.5 611.0,211.0 612.7,196.1 614.4,181.9 616.1,168.5 617.9,156.2 619.6,144.9 621.3,134.9 623.0,126.2 624.8,118.9 626.5,113.0 628.2,108.8 629.9,106.1 631.6,105.0 633.4,105.6 635.1,107.7 636.8,111.5 638.6,116.8 640.3,123.7 642.0,131.9 643.7,141.6 645.5,152.4 647.2,164.5 648.9,177.5 650.6,191.5 652.4,206.2 654.1,221.5 655.8,237.3 657.5,253.4 659.2,269.7 661.0,285.9 662.7,301.9 664.4,317.6 666.1,332.8 667.9,347.3 669.6,361.0 671.3,373.8 673.1,385.6 674.8,396.1 676.5,405.4 678.2,413.3 680.0,419.7 681.7,424.6 683.4,428.0 685.1,429.7 686.9,429.9 688.6,428.4 690.3,425.2 692.0,420.6 693.8,414.3 695.5,406.7 697.2,397.6 698.9,387.2 700.6,375.7 702.4,363.0 704.1,349.4 705.8,335.0 707.6,319.9 709.3,304.3 711.0,288.3 712.7,272.1 714.5,255.9 716.2,239.7 717.9,223.9 719.6,208.5 721.4,193.7 723.1,179.6 724.8,166.4 726.5,154.2 728.2,143.1 730.0,133.3 731.7,124.8 733.4,117.8 735.1,112.2 736.9,108.2 738.6,105.8 740.3,105.0 742.1,105.8 743.8,108.3 745.5,112.3 747.2,117.9 749.0,125.0 750.7,133.5 752.4,143.3 754.1,154.4 755.9,166.6 757.6,179.8 759.3,193.9 761.0,208.8 762.8,224.2 764.5,240.0 766.2,256.1 767.9,272.4 769.7,288.6 771.4,304.6 773.1,320.2 774.8,335.3 776.6,349.7 778.3,363.2 780.0,375.9" fill="none" stroke="#dc2626" stroke-width="2.5"/>
<polyline points="90.0,105.0 91.7,105.0 93.5,105.0 95.2,105.1 96.9,105.1 98.6,105.2 100.3,105.3 102.1,105.4 103.8,105.5 105.5,105.7 107.2,105.8 109.0,106.0 110.7,106.2 112.4,106.4 114.2,106.6 115.9,106.8 117.6,107.1 119.3,107.3 121.0,107.6 122.8,107.9 124.5,108.2 126.2,108.6 128.0,108.9 129.7,109.3 131.4,109.7 133.1,110.1 134.8,110.5 136.6,110.9 138.3,111.3 140.0,111.8 141.8,112.3 143.5,112.7 145.2,113.2 146.9,113.8 148.7,114.3 150.4,114.9 152.1,115.4 153.8,116.0 155.6,116.6 157.3,117.2 159.0,117.8 160.7,118.5 162.4,119.1 164.2,119.8 165.9,120.5 167.6,121.2 169.4,121.9 171.1,122.6 172.8,123.4 174.5,124.1 176.2,124.9 178.0,125.7 179.7,126.5 181.4,127.3 183.2,128.1 184.9,129.0 186.6,129.8 188.3,130.7 190.1,131.6 191.8,132.5 193.5,133.4 195.2,134.3 196.9,135.2 198.7,136.2 200.4,137.2 202.1,138.1 203.9,139.1 205.6,140.1 207.3,141.1 209.0,142.2 210.8,143.2 212.5,144.3 214.2,145.3 215.9,146.4 217.6,147.5 219.4,148.6 221.1,149.7 222.8,150.8 224.6,152.0 226.3,153.1 228.0,154.3 229.7,155.5 231.5,156.6 233.2,157.8 234.9,159.0 236.6,160.3 238.3,161.5 240.1,162.7 241.8,164.0 243.5,165.2 245.2,166.5 247.0,167.8 248.7,169.1 250.4,170.4 252.2,171.7 253.9,173.0 255.6,174.3 257.3,175.6 259.1,177.0 260.8,178.3 262.5,179.7 264.2,181.1 266.0,182.5 267.7,183.8 269.4,185.2 271.1,186.6 272.9,188.1 274.6,189.5 276.3,190.9 278.0,192.3 279.8,193.8 281.5,195.2 283.2,196.7 284.9,198.2 286.7,199.6 288.4,201.1 290.1,202.6 291.8,204.1 293.6,205.6 295.3,207.1 297.0,208.6 298.7,210.1 300.5,211.7 302.2,213.2 303.9,214.7 305.6,216.3 307.4,217.8 309.1,219.4 310.8,220.9 312.5,222.5 314.2,224.0 316.0,225.6 317.7,227.2 319.4,228.7 321.1,230.3 322.9,231.9 324.6,233.5 326.3,235.1 328.1,236.7 329.8,238.3 331.5,239.9 333.2,241.5 335.0,243.1 336.7,244.7 338.4,246.3 340.1,247.9 341.9,249.5 343.6,251.1 345.3,252.8 347.0,254.4 348.8,256.0 350.5,257.6 352.2,259.2 353.9,260.9 355.7,262.5 357.4,264.1 359.1,265.7 360.8,267.4 362.6,269.0 364.3,270.6 366.0,272.2 367.7,273.9 369.4,275.5 371.2,277.1 372.9,278.7 374.6,280.4 376.4,282.0 378.1,283.6 379.8,285.2 381.5,286.8 383.2,288.4 385.0,290.0 386.7,291.7 388.4,293.3 390.2,294.9 391.9,296.5 393.6,298.1 395.3,299.7 397.1,301.2 398.8,302.8 400.5,304.4 402.2,306.0 403.9,307.6 405.7,309.2 407.4,310.7 409.1,312.3 410.9,313.8 412.6,315.4 414.3,316.9 416.0,318.5 417.8,320.0 419.5,321.6 421.2,323.1 422.9,324.6 424.7,326.1 426.4,327.7 428.1,329.2 429.8,330.7 431.6,332.2 433.3,333.6 435.0,335.1 436.7,336.6 438.5,338.1 440.2,339.5 441.9,341.0 443.6,342.4 445.4,343.9 447.1,345.3 448.8,346.7 450.5,348.1 452.2,349.5 454.0,350.9 455.7,352.3 457.4,353.7 459.2,355.1 460.9,356.4 462.6,357.8 464.3,359.1 466.1,360.5 467.8,361.8 469.5,363.1 471.2,364.4 473.0,365.7 474.7,367.0 476.4,368.3 478.1,369.6 479.9,370.8 481.6,372.1 483.3,373.3 485.0,374.6 486.7,375.8 488.5,377.0 490.2,378.2 491.9,379.4 493.7,380.5 495.4,381.7 497.1,382.8 498.8,384.0 500.5,385.1 502.3,386.2 504.0,387.3 505.7,388.4 507.5,389.5 509.2,390.6 510.9,391.6 512.6,392.7 514.3,393.7 516.1,394.7 517.8,395.7 519.5,396.7 521.2,397.7 523.0,398.7 524.7,399.6 526.4,400.5 528.2,401.5 529.9,402.4 531.6,403.3 533.3,404.2 535.0,405.0 536.8,405.9 538.5,406.7 540.2,407.6 542.0,408.4 543.7,409.2 545.4,410.0 547.1,410.8 548.9,411.5 550.6,412.3 552.3,413.0 554.0,413.7 555.8,414.4 557.5,415.1 559.2,415.8 560.9,416.4 562.7,417.1 564.4,417.7 566.1,418.3 567.8,418.9 569.6,419.5 571.3,420.1 573.0,420.6 574.7,421.1 576.5,421.7 578.2,422.2 579.9,422.7 581.6,423.1 583.4,423.6 585.1,424.0 586.8,424.5 588.5,424.9 590.2,425.3 592.0,425.7 593.7,426.0 595.4,426.4 597.2,426.7 598.9,427.0 600.6,427.3 602.3,427.6 604.0,427.9 605.8,428.1 607.5,428.4 609.2,428.6 611.0,428.8 612.7,429.0 614.4,429.2 616.1,429.3 617.9,429.5 619.6,429.6 621.3,429.7 623.0,429.8 624.8,429.9 626.5,429.9 628.2,430.0 629.9,430.0 631.6,430.0 633.4,430.0 635.1,430.0 636.8,429.9 638.6,429.9 640.3,429.8 642.0,429.7 643.7,429.6 645.5,429.5 647.2,429.4 648.9,429.2 650.6,429.0 652.4,428.9 654.1,428.7 655.8,428.4 657.5,428.2 659.2,428.0 661.0,427.7 662.7,427.4 664.4,427.1 666.1,426.8 667.9,426.5 669.6,426.1 671.3,425.8 673.1,425.4 674.8,425.0 676.5,424.6 678.2,424.2 680.0,423.7 681.7,423.3 683.4,422.8 685.1,422.3 686.9,421.8 688.6,421.3 690.3,420.8 692.0,420.2 693.8,419.7 695.5,419.1 697.2,418.5 698.9,417.9 700.6,417.3 702.4,416.6 704.1,416.0 705.8,415.3 707.6,414.6 709.3,413.9 711.0,413.2 712.7,412.5 714.5,411.8 716.2,411.0 717.9,410.2 719.6,409.4 721.4,408.6 723.1,407.8 724.8,407.0 726.5,406.2 728.2,405.3 730.0,404.4 731.7,403.6 733.4,402.7 735.1,401.8 736.9,400.8 738.6,399.9 740.3,399.0 742.1,398.0 743.8,397.0 745.5,396.0 747.2,395.0 749.0,394.0 750.7,393.0 752.4,392.0 754.1,390.9 755.9,389.8 757.6,388.8 759.3,387.7 761.0,386.6 762.8,385.5 764.5,384.3 766.2,383.2 767.9,382.1 769.7,380.9 771.4,379.7 773.1,378.6 774.8,377.4 776.6,376.2 778.3,374.9 780.0,373.7" fill="none" stroke="#2563eb" stroke-width="2.5"/>
<polyline points="90.0,105.0 91.7,105.0 93.5,105.0 95.2,105.0 96.9,105.0 98.6,105.0 100.3,105.0 102.1,105.0 103.8,105.0 105.5,105.0 107.2,105.0 109.0,105.0 110.7,105.0 112.4,105.0 114.2,105.0 115.9,105.0 117.6,105.0 119.3,105.0 121.0,105.0 122.8,105.0 124.5,105.0 126.2,105.0 128.0,105.0 129.7,105.0 131.4,105.0 133.1,105.1 134.8,105.1 136.6,105.1 138.3,105.1 140.0,105.1 141.8,105.1 143.5,105.1 145.2,105.1 146.9,105.1 148.7,105.1 150.4,105.1 152.1,105.1 153.8,105.1 155.6,105.1 157.3,105.1 159.0,105.1 160.7,105.1 162.4,105.1 164.2,105.2 165.9,105.2 167.6,105.2 169.4,105.2 171.1,105.2 172.8,105.2 174.5,105.2 176.2,105.2 178.0,105.2 179.7,105.2 181.4,105.2 183.2,105.2 184.9,105.2 186.6,105.3 188.3,105.3 190.1,105.3 191.8,105.3 193.5,105.3 195.2,105.3 196.9,105.3 198.7,105.3 200.4,105.3 202.1,105.3 203.9,105.4 205.6,105.4 207.3,105.4 209.0,105.4 210.8,105.4 212.5,105.4 214.2,105.4 215.9,105.4 217.6,105.4 219.4,105.5 221.1,105.5 222.8,105.5 224.6,105.5 226.3,105.5 228.0,105.5 229.7,105.5 231.5,105.5 233.2,105.6 234.9,105.6 236.6,105.6 238.3,105.6 240.1,105.6 241.8,105.6 243.5,105.6 245.2,105.7 247.0,105.7 248.7,105.7 250.4,105.7 252.2,105.7 253.9,105.7 255.6,105.7 257.3,105.8 259.1,105.8 260.8,105.8 262.5,105.8 264.2,105.8 266.0,105.8 267.7,105.9 269.4,105.9 271.1,105.9 272.9,105.9 274.6,105.9 276.3,105.9 278.0,106.0 279.8,106.0 281.5,106.0 283.2,106.0 284.9,106.0 286.7,106.1 288.4,106.1 290.1,106.1 291.8,106.1 293.6,106.1 295.3,106.1 297.0,106.2 298.7,106.2 300.5,106.2 302.2,106.2 303.9,106.2 305.6,106.3 307.4,106.3 309.1,106.3 310.8,106.3 312.5,106.4 314.2,106.4 316.0,106.4 317.7,106.4 319.4,106.4 321.1,106.5 322.9,106.5 324.6,106.5 326.3,106.5 328.1,106.5 329.8,106.6 331.5,106.6 333.2,106.6 335.0,106.6 336.7,106.7 338.4,106.7 340.1,106.7 341.9,106.7 343.6,106.8 345.3,106.8 347.0,106.8 348.8,106.8 350.5,106.8 352.2,106.9 353.9,106.9 355.7,106.9 357.4,106.9 359.1,107.0 360.8,107.0 362.6,107.0 364.3,107.0 366.0,107.1 367.7,107.1 369.4,107.1 371.2,107.2 372.9,107.2 374.6,107.2 376.4,107.2 378.1,107.3 379.8,107.3 381.5,107.3 383.2,107.3 385.0,107.4 386.7,107.4 388.4,107.4 390.2,107.5 391.9,107.5 393.6,107.5 395.3,107.5 397.1,107.6 398.8,107.6 400.5,107.6 402.2,107.7 403.9,107.7 405.7,107.7 407.4,107.7 409.1,107.8 410.9,107.8 412.6,107.8 414.3,107.9 416.0,107.9 417.8,107.9 419.5,108.0 421.2,108.0 422.9,108.0 424.7,108.0 426.4,108.1 428.1,108.1 429.8,108.1 431.6,108.2 433.3,108.2 435.0,108.2 436.7,108.3 438.5,108.3 440.2,108.3 441.9,108.4 443.6,108.4 445.4,108.4 447.1,108.5 448.8,108.5 450.5,108.5 452.2,108.6 454.0,108.6 455.7,108.6 457.4,108.7 459.2,108.7 460.9,108.7 462.6,108.8 464.3,108.8 466.1,108.8 467.8,108.9 469.5,108.9 471.2,109.0 473.0,109.0 474.7,109.0 476.4,109.1 478.1,109.1 479.9,109.1 481.6,109.2 483.3,109.2 485.0,109.2 486.7,109.3 488.5,109.3 490.2,109.4 491.9,109.4 493.7,109.4 495.4,109.5 497.1,109.5 498.8,109.5 500.5,109.6 502.3,109.6 504.0,109.7 505.7,109.7 507.5,109.7 509.2,109.8 510.9,109.8 512.6,109.9 514.3,109.9 516.1,109.9 517.8,110.0 519.5,110.0 521.2,110.1 523.0,110.1 524.7,110.1 526.4,110.2 528.2,110.2 529.9,110.3 531.6,110.3 533.3,110.3 535.0,110.4 536.8,110.4 538.5,110.5 540.2,110.5 542.0,110.5 543.7,110.6 545.4,110.6 547.1,110.7 548.9,110.7 550.6,110.8 552.3,110.8 554.0,110.8 555.8,110.9 557.5,110.9 559.2,111.0 560.9,111.0 562.7,111.1 564.4,111.1 566.1,111.2 567.8,111.2 569.6,111.2 571.3,111.3 573.0,111.3 574.7,111.4 576.5,111.4 578.2,111.5 579.9,111.5 581.6,111.6 583.4,111.6 585.1,111.6 586.8,111.7 588.5,111.7 590.2,111.8 592.0,111.8 593.7,111.9 595.4,111.9 597.2,112.0 598.9,112.0 600.6,112.1 602.3,112.1 604.0,112.2 605.8,112.2 607.5,112.3 609.2,112.3 611.0,112.4 612.7,112.4 614.4,112.5 616.1,112.5 617.9,112.5 619.6,112.6 621.3,112.6 623.0,112.7 624.8,112.7 626.5,112.8 628.2,112.8 629.9,112.9 631.6,112.9 633.4,113.0 635.1,113.0 636.8,113.1 638.6,113.1 640.3,113.2 642.0,113.2 643.7,113.3 645.5,113.4 647.2,113.4 648.9,113.5 650.6,113.5 652.4,113.6 654.1,113.6 655.8,113.7 657.5,113.7 659.2,113.8 661.0,113.8 662.7,113.9 664.4,113.9 666.1,114.0 667.9,114.0 669.6,114.1 671.3,114.1 673.1,114.2 674.8,114.2 676.5,114.3 678.2,114.4 680.0,114.4 681.7,114.5 683.4,114.5 685.1,114.6 686.9,114.6 688.6,114.7 690.3,114.7 692.0,114.8 693.8,114.9 695.5,114.9 697.2,115.0 698.9,115.0 700.6,115.1 702.4,115.1 704.1,115.2 705.8,115.2 707.6,115.3 709.3,115.4 711.0,115.4 712.7,115.5 714.5,115.5 716.2,115.6 717.9,115.6 719.6,115.7 721.4,115.8 723.1,115.8 724.8,115.9 726.5,115.9 728.2,116.0 730.0,116.1 731.7,116.1 733.4,116.2 735.1,116.2 736.9,116.3 738.6,116.4 740.3,116.4 742.1,116.5 743.8,116.5 745.5,116.6 747.2,116.7 749.0,116.7 750.7,116.8 752.4,116.8 754.1,116.9 755.9,117.0 757.6,117.0 759.3,117.1 761.0,117.1 762.8,117.2 764.5,117.3 766.2,117.3 767.9,117.4 769.7,117.5 771.4,117.5 773.1,117.6 774.8,117.6 776.6,117.7 778.3,117.8 780.0,117.8" fill="none" stroke="#16a34a" stroke-width="2.5"/>
<polyline points="90.0,105.0 91.7,105.0 93.5,105.0 95.2,105.0 96.9,105.0 98.6,105.0 100.3,105.0 102.1,105.0 103.8,105.0 105.5,105.0 107.2,105.0 109.0,105.0 110.7,105.0 112.4,105.0 114.2,105.0 115.9,105.0 117.6,105.0 119.3,105.0 121.0,105.0 122.8,105.0 124.5,105.0 126.2,105.0 128.0,105.0 129.7,105.0 131.4,105.0 133.1,105.0 134.8,105.0 136.6,105.0 138.3,105.0 140.0,105.0 141.8,105.0 143.5,105.0 145.2,105.0 146.9,105.0 148.7,105.0 150.4,105.0 152.1,105.0 153.8,105.0 155.6,105.0 157.3,105.0 159.0,105.0 160.7,105.0 162.4,105.0 164.2,105.0 165.9,105.0 167.6,105.0 169.4,105.0 171.1,105.0 172.8,105.0 174.5,105.0 176.2,105.0 178.0,105.0 179.7,105.0 181.4,105.0 183.2,105.0 184.9,105.0 186.6,105.0 188.3,105.0 190.1,105.0 191.8,105.0 193.5,105.0 195.2,105.0 196.9,105.0 198.7,105.0 200.4,105.0 202.1,105.0 203.9,105.0 205.6,105.0 207.3,105.0 209.0,105.0 210.8,105.0 212.5,105.0 214.2,105.0 215.9,105.0 217.6,105.0 219.4,105.0 221.1,105.0 222.8,105.0 224.6,105.0 226.3,105.0 228.0,105.0 229.7,105.0 231.5,105.0 233.2,105.0 234.9,105.0 236.6,105.0 238.3,105.0 240.1,105.0 241.8,105.0 243.5,105.0 245.2,105.0 247.0,105.0 248.7,105.0 250.4,105.0 252.2,105.0 253.9,105.0 255.6,105.0 257.3,105.0 259.1,105.0 260.8,105.0 262.5,105.0 264.2,105.0 266.0,105.0 267.7,105.0 269.4,105.0 271.1,105.0 272.9,105.0 274.6,105.0 276.3,105.0 278.0,105.0 279.8,105.0 281.5,105.0 283.2,105.0 284.9,105.0 286.7,105.0 288.4,105.0 290.1,105.0 291.8,105.0 293.6,105.0 295.3,105.0 297.0,105.0 298.7,105.0 300.5,105.0 302.2,105.0 303.9,105.0 305.6,105.0 307.4,105.0 309.1,105.0 310.8,105.0 312.5,105.0 314.2,105.0 316.0,105.0 317.7,105.0 319.4,105.0 321.1,105.0 322.9,105.0 324.6,105.0 326.3,105.0 328.1,105.0 329.8,105.0 331.5,105.0 333.2,105.0 335.0,105.0 336.7,105.0 338.4,105.0 340.1,105.0 341.9,105.0 343.6,105.0 345.3,105.0 347.0,105.0 348.8,105.0 350.5,105.0 352.2,105.0 353.9,105.0 355.7,105.0 357.4,105.0 359.1,105.0 360.8,105.0 362.6,105.0 364.3,105.0 366.0,105.0 367.7,105.0 369.4,105.0 371.2,105.0 372.9,105.0 374.6,105.0 376.4,105.0 378.1,105.0 379.8,105.0 381.5,105.0 383.2,105.0 385.0,105.0 386.7,105.0 388.4,105.0 390.2,105.0 391.9,105.0 393.6,105.0 395.3,105.0 397.1,105.0 398.8,105.0 400.5,105.0 402.2,105.0 403.9,105.0 405.7,105.0 407.4,105.0 409.1,105.0 410.9,105.0 412.6,105.0 414.3,105.0 416.0,105.0 417.8,105.0 419.5,105.0 421.2,105.0 422.9,105.0 424.7,105.0 426.4,105.0 428.1,105.0 429.8,105.0 431.6,105.0 433.3,105.0 435.0,105.0 436.7,105.0 438.5,105.0 440.2,105.0 441.9,105.0 443.6,105.0 445.4,105.0 447.1,105.0 448.8,105.0 450.5,105.0 452.2,105.0 454.0,105.0 455.7,105.0 457.4,105.0 459.2,105.0 460.9,105.0 462.6,105.0 464.3,105.0 466.1,105.0 467.8,105.0 469.5,105.0 471.2,105.0 473.0,105.0 474.7,105.0 476.4,105.0 478.1,105.0 479.9,105.0 481.6,105.0 483.3,105.0 485.0,105.0 486.7,105.0 488.5,105.0 490.2,105.0 491.9,105.0 493.7,105.0 495.4,105.0 497.1,105.0 498.8,105.0 500.5,105.0 502.3,105.0 504.0,105.0 505.7,105.0 507.5,105.0 509.2,105.0 510.9,105.0 512.6,105.0 514.3,105.0 516.1,105.0 517.8,105.0 519.5,105.1 521.2,105.1 523.0,105.1 524.7,105.1 526.4,105.1 528.2,105.1 529.9,105.1 531.6,105.1 533.3,105.1 535.0,105.1 536.8,105.1 538.5,105.1 540.2,105.1 542.0,105.1 543.7,105.1 545.4,105.1 547.1,105.1 548.9,105.1 550.6,105.1 552.3,105.1 554.0,105.1 555.8,105.1 557.5,105.1 559.2,105.1 560.9,105.1 562.7,105.1 564.4,105.1 566.1,105.1 567.8,105.1 569.6,105.1 571.3,105.1 573.0,105.1 574.7,105.1 576.5,105.1 578.2,105.1 579.9,105.1 581.6,105.1 583.4,105.1 585.1,105.1 586.8,105.1 588.5,105.1 590.2,105.1 592.0,105.1 593.7,105.1 595.4,105.1 597.2,105.1 598.9,105.1 600.6,105.1 602.3,105.1 604.0,105.1 605.8,105.1 607.5,105.1 609.2,105.1 611.0,105.1 612.7,105.1 614.4,105.1 616.1,105.1 617.9,105.1 619.6,105.1 621.3,105.1 623.0,105.1 624.8,105.1 626.5,105.1 628.2,105.1 629.9,105.1 631.6,105.1 633.4,105.1 635.1,105.1 636.8,105.1 638.6,105.1 640.3,105.1 642.0,105.1 643.7,105.1 645.5,105.1 647.2,105.1 648.9,105.1 650.6,105.1 652.4,105.1 654.1,105.1 655.8,105.1 657.5,105.1 659.2,105.1 661.0,105.1 662.7,105.1 664.4,105.1 666.1,105.1 667.9,105.1 669.6,105.1 671.3,105.1 673.1,105.1 674.8,105.1 676.5,105.1 678.2,105.1 680.0,105.1 681.7,105.1 683.4,105.1 685.1,105.1 686.9,105.1 688.6,105.1 690.3,105.1 692.0,105.1 693.8,105.1 695.5,105.1 697.2,105.1 698.9,105.1 700.6,105.1 702.4,105.1 704.1,105.1 705.8,105.1 707.6,105.1 709.3,105.1 711.0,105.1 712.7,105.1 714.5,105.1 716.2,105.1 717.9,105.1 719.6,105.1 721.4,105.1 723.1,105.1 724.8,105.1 726.5,105.1 728.2,105.1 730.0,105.1 731.7,105.1 733.4,105.1 735.1,105.1 736.9,105.1 738.6,105.1 740.3,105.1 742.1,105.1 743.8,105.1 745.5,105.1 747.2,105.1 749.0,105.1 750.7,105.1 752.4,105.1 754.1,105.1 755.9,105.1 757.6,105.1 759.3,105.1 761.0,105.1 762.8,105.1 764.5,105.1 766.2,105.1 767.9,105.1 769.7,105.1 771.4,105.1 773.1,105.1 774.8,105.1 776.6,105.1 778.3,105.1 780.0,105.1" fill="none" stroke="#7c3aed" stroke-width="2.5"/>
<rect x="615" y="120" width="205" height="122" rx="12" fill="#ffffff" stroke="#d1d5db"/>
<text x="629" y="144" class="label">성분쌍별 회전 주파수</text>
<line x1="631" y1="168" x2="663" y2="168" stroke="#dc2626" stroke-width="3"/>
<text x="673" y="172" class="small">θ₁=1</text>
<line x1="631" y1="190" x2="663" y2="190" stroke="#2563eb" stroke-width="3"/>
<text x="673" y="194" class="small">θ₂=0.1</text>
<line x1="631" y1="212" x2="663" y2="212" stroke="#16a34a" stroke-width="3"/>
<text x="673" y="216" class="small">θ₃=0.01</text>
<line x1="631" y1="234" x2="663" y2="234" stroke="#7c3aed" stroke-width="3"/>
<text x="673" y="238" class="small">θ₄=0.001</text>
<text x="90" y="495" class="small">θ가 클수록 위치가 조금만 바뀌어도 곡선이 빠르게 흔들리고, θ가 작을수록 먼 위치까지 천천히 변한다.</text>
</svg>
