<svg xmlns="http://www.w3.org/2000/svg" width="406" height="374" viewBox="0 0 406 374">
<rect width="100%" height="100%" fill="white"/>
<text x="203.0" y="28" text-anchor="middle" font-size="16" font-family="sans-serif">Additive K-RoPE: 철수가 영희를 좋아한다</text>
<text x="161.0" y="60" text-anchor="middle" font-size="13" font-family="sans-serif">철수가</text>
<text x="243.0" y="60" text-anchor="middle" font-size="13" font-family="sans-serif">영희를</text>
<text x="325.0" y="60" text-anchor="middle" font-size="13" font-family="sans-serif">좋아한다</text>
<text x="110" y="124.0" text-anchor="end" font-size="13" font-family="sans-serif">철수가</text>
<text x="110" y="206.0" text-anchor="end" font-size="13" font-family="sans-serif">영희를</text>
<text x="110" y="288.0" text-anchor="end" font-size="13" font-family="sans-serif">좋아한다</text>
<rect x="120" y="78" width="82" height="82" fill="#e6de2f" stroke="white"/>
<text x="161.0" y="124.0" text-anchor="middle" font-size="15" fill="white" font-family="monospace">0.95</text>
<rect x="202" y="78" width="82" height="82" fill="#420856" stroke="white"/>
<text x="243.0" y="124.0" text-anchor="middle" font-size="15" fill="white" font-family="monospace">0.03</text>
<rect x="284" y="78" width="82" height="82" fill="#420856" stroke="white"/>
<text x="325.0" y="124.0" text-anchor="middle" font-size="15" fill="white" font-family="monospace">0.03</text>
<rect x="120" y="160" width="82" height="82" fill="#420555" stroke="white"/>
<text x="161.0" y="206.0" text-anchor="middle" font-size="15" fill="white" font-family="monospace">0.02</text>
<rect x="202" y="160" width="82" height="82" fill="#5aa770" stroke="white"/>
<text x="243.0" y="206.0" text-anchor="middle" font-size="15" fill="white" font-family="monospace">0.63</text>
<rect x="284" y="160" width="82" height="82" fill="#2b667b" stroke="white"/>
<text x="325.0" y="206.0" text-anchor="middle" font-size="15" fill="white" font-family="monospace">0.35</text>
<rect x="120" y="242" width="82" height="82" fill="#430455" stroke="white"/>
<text x="161.0" y="288.0" text-anchor="middle" font-size="15" fill="white" font-family="monospace">0.01</text>
<rect x="202" y="242" width="82" height="82" fill="#33466f" stroke="white"/>
<text x="243.0" y="288.0" text-anchor="middle" font-size="15" fill="white" font-family="monospace">0.24</text>
<rect x="284" y="242" width="82" height="82" fill="#8dbb59" stroke="white"/>
<text x="325.0" y="288.0" text-anchor="middle" font-size="15" fill="white" font-family="monospace">0.75</text>
</svg>