<svg xmlns="http://www.w3.org/2000/svg" width="406" height="374" viewBox="0 0 406 374">
<rect width="100%" height="100%" fill="white"/>
<text x="203.0" y="28" text-anchor="middle" font-size="16" font-family="sans-serif">Additive K-RoPE: 영희를 철수가 좋아한다</text>
<text x="161.0" y="60" text-anchor="middle" font-size="13" font-family="sans-serif">영희를</text>
<text x="243.0" y="60" text-anchor="middle" font-size="13" font-family="sans-serif">철수가</text>
<text x="325.0" y="60" text-anchor="middle" font-size="13" font-family="sans-serif">좋아한다</text>
<text x="110" y="124.0" text-anchor="end" font-size="13" font-family="sans-serif">영희를</text>
<text x="110" y="206.0" text-anchor="end" font-size="13" font-family="sans-serif">철수가</text>
<text x="110" y="288.0" text-anchor="end" font-size="13" font-family="sans-serif">좋아한다</text>
<rect x="120" y="78" width="82" height="82" fill="#72b066" stroke="white"/>
<text x="161.0" y="124.0" text-anchor="middle" font-size="15" fill="white" font-family="monospace">0.68</text>
<rect x="202" y="78" width="82" height="82" fill="#32476f" stroke="white"/>
<text x="243.0" y="124.0" text-anchor="middle" font-size="15" fill="white" font-family="monospace">0.25</text>
<rect x="284" y="78" width="82" height="82" fill="#3f155b" stroke="white"/>
<text x="325.0" y="124.0" text-anchor="middle" font-size="15" fill="white" font-family="monospace">0.07</text>
<rect x="120" y="160" width="82" height="82" fill="#314c71" stroke="white"/>
<text x="161.0" y="206.0" text-anchor="middle" font-size="15" fill="white" font-family="monospace">0.26</text>
<rect x="202" y="160" width="82" height="82" fill="#83b75d" stroke="white"/>
<text x="243.0" y="206.0" text-anchor="middle" font-size="15" fill="white" font-family="monospace">0.72</text>
<rect x="284" y="160" width="82" height="82" fill="#420555" stroke="white"/>
<text x="325.0" y="206.0" text-anchor="middle" font-size="15" fill="white" font-family="monospace">0.01</text>
<rect x="120" y="242" width="82" height="82" fill="#40105a" stroke="white"/>
<text x="161.0" y="288.0" text-anchor="middle" font-size="15" fill="white" font-family="monospace">0.06</text>
<rect x="202" y="242" width="82" height="82" fill="#430455" stroke="white"/>
<text x="243.0" y="288.0" text-anchor="middle" font-size="15" fill="white" font-family="monospace">0.01</text>
<rect x="284" y="242" width="82" height="82" fill="#dfdb32" stroke="white"/>
<text x="325.0" y="288.0" text-anchor="middle" font-size="15" fill="white" font-family="monospace">0.93</text>
</svg>