<svg xmlns="http://www.w3.org/2000/svg" width="627" height="594" viewBox="0 0 627 594">
<rect width="100%" height="100%" fill="white"/>
<text x="313.5" y="28" text-anchor="middle" font-size="16" font-family="sans-serif">Dual-axis K-RoPE: 어제 도서관에서 빌린 책을 민수가 읽었다</text>
<text x="171.0" y="72" text-anchor="middle" font-size="11" font-family="sans-serif" transform="rotate(-22 171.0 72)">어제</text>
<text x="243.0" y="72" text-anchor="middle" font-size="11" font-family="sans-serif" transform="rotate(-22 243.0 72)">도서관에서</text>
<text x="315.0" y="72" text-anchor="middle" font-size="11" font-family="sans-serif" transform="rotate(-22 315.0 72)">빌린</text>
<text x="387.0" y="72" text-anchor="middle" font-size="11" font-family="sans-serif" transform="rotate(-22 387.0 72)">책을</text>
<text x="459.0" y="72" text-anchor="middle" font-size="11" font-family="sans-serif" transform="rotate(-22 459.0 72)">민수가</text>
<text x="531.0" y="72" text-anchor="middle" font-size="11" font-family="sans-serif" transform="rotate(-22 531.0 72)">읽었다</text>
<text x="125" y="133.0" text-anchor="end" font-size="12" font-family="sans-serif">어제</text>
<text x="125" y="205.0" text-anchor="end" font-size="12" font-family="sans-serif">도서관에서</text>
<text x="125" y="277.0" text-anchor="end" font-size="12" font-family="sans-serif">빌린</text>
<text x="125" y="349.0" text-anchor="end" font-size="12" font-family="sans-serif">책을</text>
<text x="125" y="421.0" text-anchor="end" font-size="12" font-family="sans-serif">민수가</text>
<text x="125" y="493.0" text-anchor="end" font-size="12" font-family="sans-serif">읽었다</text>
<rect x="135" y="92" width="72" height="72" fill="#32476f" stroke="white"/>
<text x="171.0" y="133.0" text-anchor="middle" font-size="13" fill="white" font-family="monospace">0.24</text>
<rect x="207" y="92" width="72" height="72" fill="#34416d" stroke="white"/>
<text x="243.0" y="133.0" text-anchor="middle" font-size="13" fill="white" font-family="monospace">0.22</text>
<rect x="279" y="92" width="72" height="72" fill="#373568" stroke="white"/>
<text x="315.0" y="133.0" text-anchor="middle" font-size="13" fill="white" font-family="monospace">0.18</text>
<rect x="351" y="92" width="72" height="72" fill="#3c1f5f" stroke="white"/>
<text x="387.0" y="133.0" text-anchor="middle" font-size="13" fill="white" font-family="monospace">0.11</text>
<rect x="423" y="92" width="72" height="72" fill="#3c2160" stroke="white"/>
<text x="459.0" y="133.0" text-anchor="middle" font-size="13" fill="white" font-family="monospace">0.11</text>
<rect x="495" y="92" width="72" height="72" fill="#3a2662" stroke="white"/>
<text x="531.0" y="133.0" text-anchor="middle" font-size="13" fill="white" font-family="monospace">0.13</text>
<rect x="135" y="164" width="72" height="72" fill="#353d6b" stroke="white"/>
<text x="171.0" y="205.0" text-anchor="middle" font-size="13" fill="white" font-family="monospace">0.21</text>
<rect x="207" y="164" width="72" height="72" fill="#33436d" stroke="white"/>
<text x="243.0" y="205.0" text-anchor="middle" font-size="13" fill="white" font-family="monospace">0.23</text>
<rect x="279" y="164" width="72" height="72" fill="#353b6a" stroke="white"/>
<text x="315.0" y="205.0" text-anchor="middle" font-size="13" fill="white" font-family="monospace">0.20</text>
<rect x="351" y="164" width="72" height="72" fill="#3c2060" stroke="white"/>
<text x="387.0" y="205.0" text-anchor="middle" font-size="13" fill="white" font-family="monospace">0.11</text>
<rect x="423" y="164" width="72" height="72" fill="#382f66" stroke="white"/>
<text x="459.0" y="205.0" text-anchor="middle" font-size="13" fill="white" font-family="monospace">0.16</text>
<rect x="495" y="164" width="72" height="72" fill="#3e195d" stroke="white"/>
<text x="531.0" y="205.0" text-anchor="middle" font-size="13" fill="white" font-family="monospace">0.09</text>
<rect x="135" y="236" width="72" height="72" fill="#3b2562" stroke="white"/>
<text x="171.0" y="277.0" text-anchor="middle" font-size="13" fill="white" font-family="monospace">0.13</text>
<rect x="207" y="236" width="72" height="72" fill="#392c64" stroke="white"/>
<text x="243.0" y="277.0" text-anchor="middle" font-size="13" fill="white" font-family="monospace">0.15</text>
<rect x="279" y="236" width="72" height="72" fill="#2e5875" stroke="white"/>
<text x="315.0" y="277.0" text-anchor="middle" font-size="13" fill="white" font-family="monospace">0.30</text>
<rect x="351" y="236" width="72" height="72" fill="#353c6b" stroke="white"/>
<text x="387.0" y="277.0" text-anchor="middle" font-size="13" fill="white" font-family="monospace">0.21</text>
<rect x="423" y="236" width="72" height="72" fill="#3c2060" stroke="white"/>
<text x="459.0" y="277.0" text-anchor="middle" font-size="13" fill="white" font-family="monospace">0.11</text>
<rect x="495" y="236" width="72" height="72" fill="#3c2060" stroke="white"/>
<text x="531.0" y="277.0" text-anchor="middle" font-size="13" fill="white" font-family="monospace">0.11</text>
<rect x="135" y="308" width="72" height="72" fill="#410b58" stroke="white"/>
<text x="171.0" y="349.0" text-anchor="middle" font-size="13" fill="white" font-family="monospace">0.04</text>
<rect x="207" y="308" width="72" height="72" fill="#410c58" stroke="white"/>
<text x="243.0" y="349.0" text-anchor="middle" font-size="13" fill="white" font-family="monospace">0.04</text>
<rect x="279" y="308" width="72" height="72" fill="#3c1e5f" stroke="white"/>
<text x="315.0" y="349.0" text-anchor="middle" font-size="13" fill="white" font-family="monospace">0.10</text>
<rect x="351" y="308" width="72" height="72" fill="#267982" stroke="white"/>
<text x="387.0" y="349.0" text-anchor="middle" font-size="13" fill="white" font-family="monospace">0.42</text>
<rect x="423" y="308" width="72" height="72" fill="#3b2361" stroke="white"/>
<text x="459.0" y="349.0" text-anchor="middle" font-size="13" fill="white" font-family="monospace">0.12</text>
<rect x="495" y="308" width="72" height="72" fill="#305273" stroke="white"/>
<text x="531.0" y="349.0" text-anchor="middle" font-size="13" fill="white" font-family="monospace">0.28</text>
<rect x="135" y="380" width="72" height="72" fill="#401059" stroke="white"/>
<text x="171.0" y="421.0" text-anchor="middle" font-size="13" fill="white" font-family="monospace">0.05</text>
<rect x="207" y="380" width="72" height="72" fill="#3e175c" stroke="white"/>
<text x="243.0" y="421.0" text-anchor="middle" font-size="13" fill="white" font-family="monospace">0.08</text>
<rect x="279" y="380" width="72" height="72" fill="#3e155c" stroke="white"/>
<text x="315.0" y="421.0" text-anchor="middle" font-size="13" fill="white" font-family="monospace">0.07</text>
<rect x="351" y="380" width="72" height="72" fill="#382f66" stroke="white"/>
<text x="387.0" y="421.0" text-anchor="middle" font-size="13" fill="white" font-family="monospace">0.16</text>
<rect x="423" y="380" width="72" height="72" fill="#3e9c7e" stroke="white"/>
<text x="459.0" y="421.0" text-anchor="middle" font-size="13" fill="white" font-family="monospace">0.57</text>
<rect x="495" y="380" width="72" height="72" fill="#3f135b" stroke="white"/>
<text x="531.0" y="421.0" text-anchor="middle" font-size="13" fill="white" font-family="monospace">0.06</text>
<rect x="135" y="452" width="72" height="72" fill="#410c58" stroke="white"/>
<text x="171.0" y="493.0" text-anchor="middle" font-size="13" fill="white" font-family="monospace">0.04</text>
<rect x="207" y="452" width="72" height="72" fill="#420856" stroke="white"/>
<text x="243.0" y="493.0" text-anchor="middle" font-size="13" fill="white" font-family="monospace">0.03</text>
<rect x="279" y="452" width="72" height="72" fill="#400d59" stroke="white"/>
<text x="315.0" y="493.0" text-anchor="middle" font-size="13" fill="white" font-family="monospace">0.05</text>
<rect x="351" y="452" width="72" height="72" fill="#33466e" stroke="white"/>
<text x="387.0" y="493.0" text-anchor="middle" font-size="13" fill="white" font-family="monospace">0.24</text>
<rect x="423" y="452" width="72" height="72" fill="#410c58" stroke="white"/>
<text x="459.0" y="493.0" text-anchor="middle" font-size="13" fill="white" font-family="monospace">0.04</text>
<rect x="495" y="452" width="72" height="72" fill="#51a375" stroke="white"/>
<text x="531.0" y="493.0" text-anchor="middle" font-size="13" fill="white" font-family="monospace">0.61</text>
</svg>